<svg xmlns="http://www.w3.org/2000/svg" viewBox="0 0 100 100">
  <!-- Robot head with neural network pattern -->
  <g id="robot-head">
    <!-- Head shape -->
    <rect x="25" y="20" width="50" height="50" rx="10" ry="10" fill="#1e3a8a" stroke="#2d3748" stroke-width="2"/>

    <!-- Eyes -->
    <circle cx="40" cy="40" r="5" fill="#06b6d4"/>
    <circle cx="60" cy="40" r="5" fill="#06b6d4"/>

    <!-- Neural network pattern -->
    <path d="M30,30 L35,35 M40,30 L45,35 M50,30 L55,35 M60,30 L65,35 M70,30 L75,35"
          stroke="#0ea5e9" stroke-width="1.5" stroke-linecap="round"/>
    <path d="M30,45 L35,50 M40,45 L45,50 M50,45 L55,50 M60,45 L65,50 M70,45 L75,50"
          stroke="#0ea5e9" stroke-width="1.5" stroke-linecap="round"/>
    <path d="M30,60 L35,65 M40,60 L45,65 M50,60 L55,65 M60,60 L65,65 M70,60 L75,65"
          stroke="#0ea5e9" stroke-width="1.5" stroke-linecap="round"/>

    <!-- Connecting lines (synapses) -->
    <path d="M40,45 L50,50 L60,45" stroke="#06b6d4" stroke-width="1" opacity="0.7"/>
    <path d="M40,55 L50,50 L60,55" stroke="#06b6d4" stroke-width="1" opacity="0.7"/>
  </g>

  <!-- Base/stand -->
  <rect x="40" y="70" width="20" height="10" rx="2" ry="2" fill="#2d3748"/>

  <!-- Decorative elements -->
  <circle cx="50" cy="15" r="3" fill="#06b6d4"/>
  <circle cx="35" cy="75" r="2" fill="#06b6d4"/>
  <circle cx="65" cy="75" r="2" fill="#06b6d4"/>
</svg>